<?xml version="1.0" encoding="UTF-8" standalone="no"?>
<svg
   xmlns:dc="http://purl.org/dc/elements/1.1/"
   xmlns:cc="http://creativecommons.org/ns#"
   xmlns:rdf="http://www.w3.org/1999/02/22-rdf-syntax-ns#"
   xmlns:svg="http://www.w3.org/2000/svg"
   xmlns="http://www.w3.org/2000/svg"
   xmlns:xlink="http://www.w3.org/1999/xlink"
   xmlns:sodipodi="http://sodipodi.sourceforge.net/DTD/sodipodi-0.dtd"
   xmlns:inkscape="http://www.inkscape.org/namespaces/inkscape"
   version="1.1"
   width="460.32892"
   height="214.34683"
   id="svg26"
   sodipodi:docname="Color logo - no background - NoName.svg"
   inkscape:version="0.92.4 (5da689c313, 2019-01-14)">
  <metadata
     id="metadata32">
    <rdf:RDF>
      <cc:Work
         rdf:about="">
        <dc:format>image/svg+xml</dc:format>
        <dc:type
           rdf:resource="http://purl.org/dc/dcmitype/StillImage" />
        <dc:title />
      </cc:Work>
    </rdf:RDF>
  </metadata>
  <defs
     id="defs30">
    <clipPath
       clipPathUnits="userSpaceOnUse"
       id="clipPath52">
      <rect
         style="fill:#000000;fill-opacity:1;stroke:#000000;stroke-width:0.15366666"
         id="rect54"
         width="105.98759"
         height="140"
         x="-10"
         y="-10"
         ry="0.2305" />
    </clipPath>
    <linearGradient
       inkscape:collect="always"
       xlink:href="#SvgjsLinearGradient2742"
       id="linearGradient27"
       gradientTransform="scale(1.5102625,0.66213656)"
       x1="14.426537"
       y1="1492.8009"
       x2="53.442459"
       y2="1492.8009"
       gradientUnits="userSpaceOnUse" />
    <linearGradient
       inkscape:collect="always"
       xlink:href="#SvgjsLinearGradient2742"
       id="linearGradient29"
       gradientTransform="scale(1.5102625,0.66213656)"
       x1="14.426537"
       y1="1492.8009"
       x2="53.442459"
       y2="1492.8009"
       gradientUnits="userSpaceOnUse" />
    <linearGradient
       inkscape:collect="always"
       xlink:href="#SvgjsLinearGradient2742"
       id="linearGradient31"
       gradientTransform="scale(1.5102625,0.66213656)"
       x1="14.426537"
       y1="54.484001"
       x2="53.442459"
       y2="54.484001"
       gradientUnits="userSpaceOnUse" />
    <linearGradient
       inkscape:collect="always"
       xlink:href="#SvgjsLinearGradient2736"
       id="linearGradient33"
       gradientTransform="scale(2.3815614,0.4198926)"
       x1="0.39469904"
       y1="21.148266"
       x2="37.261269"
       y2="21.148266"
       gradientUnits="userSpaceOnUse" />
    <linearGradient
       inkscape:collect="always"
       xlink:href="#SvgjsLinearGradient2736"
       id="linearGradient35"
       gradientTransform="scale(2.3815614,0.4198926)"
       x1="0.39469904"
       y1="21.148266"
       x2="37.261269"
       y2="21.148266"
       gradientUnits="userSpaceOnUse" />
    <linearGradient
       inkscape:collect="always"
       xlink:href="#SvgjsLinearGradient2739"
       id="linearGradient37"
       gradientTransform="scale(2.3577828,0.42412728)"
       x1="0.32233673"
       y1="22.351782"
       x2="35.406143"
       y2="22.351782"
       gradientUnits="userSpaceOnUse" />
    <linearGradient
       inkscape:collect="always"
       xlink:href="#SvgjsLinearGradient2739"
       id="linearGradient39"
       gradientTransform="scale(2.3577828,0.42412728)"
       x1="0.32233673"
       y1="22.351782"
       x2="35.406143"
       y2="22.351782"
       gradientUnits="userSpaceOnUse" />
  </defs>
  <sodipodi:namedview
     pagecolor="#ffffff"
     bordercolor="#666666"
     borderopacity="1"
     objecttolerance="10"
     gridtolerance="10"
     guidetolerance="10"
     inkscape:pageopacity="0"
     inkscape:pageshadow="2"
     inkscape:window-width="1920"
     inkscape:window-height="1017"
     id="namedview28"
     showgrid="false"
     inkscape:snap-page="true"
     inkscape:zoom="2.0529951"
     inkscape:cx="249.51249"
     inkscape:cy="63.324472"
     inkscape:window-x="-8"
     inkscape:window-y="-8"
     inkscape:window-maximized="1"
     inkscape:current-layer="svg26" />
  <g
     transform="matrix(6.5075922,0,0,6.5075922,-64.075892,-282.75688)"
     id="g24"
     clip-path="url(#clipPath52)">
    <defs
       id="SvgjsDefs2731">
      <linearGradient
         id="SvgjsLinearGradient2736">
        <stop
           id="SvgjsStop2737"
           stop-color="#b88746"
           offset="0" />
        <stop
           id="SvgjsStop2738"
           stop-color="#fdf5a6"
           offset="1" />
      </linearGradient>
      <linearGradient
         id="SvgjsLinearGradient2739">
        <stop
           id="SvgjsStop2740"
           stop-color="#b88746"
           offset="0" />
        <stop
           id="SvgjsStop2741"
           stop-color="#fdf5a6"
           offset="1" />
      </linearGradient>
      <linearGradient
         id="SvgjsLinearGradient2742">
        <stop
           id="SvgjsStop2743"
           stop-color="#b88746"
           offset="0" />
        <stop
           id="SvgjsStop2744"
           stop-color="#fdf5a6"
           offset="1" />
      </linearGradient>
    </defs>
    <g
       id="SvgjsG2732"
       featureKey="root"
       style="fill:#000000" />
    <g
       id="SvgjsG2733"
       featureKey="symbol1"
       transform="matrix(1.1879653,0,0,1.1879653,-15.883222,2.1431237)"
       style="fill:url(#linearGradient31)">
      <g
         transform="translate(0,-952.36218)"
         id="g15"
         style="fill:url(#linearGradient29)">
        <path
           d="m 57.997851,988.43803 -16.037364,14.80367 9.652814,9.7242 a 2.2066031,2.2066031 0 0 1 0.652785,1.306 l 28.446057,-0.072 -22.714292,-25.76133 z m -23.802748,13.35217 -12.407246,12.4092 h 8.199609 l -0.07237,0.072 h 12.045392 4.71568 l -12.479617,-12.4816 z"
           style="fill:url(#linearGradient27);fill-opacity:1;stroke:none"
           id="path13"
           inkscape:connector-curvature="0" />
      </g>
    </g>
    <g
       id="SvgjsG2734"
       featureKey="text1"
       transform="matrix(4.1166289,0,0,4.1166289,96.130369,-26.555657)"
       style="fill:url(#linearGradient35)">
      <path
         d="m 8.34,9.48 q 3.2,0 5.28,2.1 2.08,2.1 2.12,5.34 -0.02,3.3 -2.14,5.36 -2.12,2.06 -5.26,2.08 -3.2,0 -5.28,-2.11 -2.08,-2.11 -2.12,-5.33 0,-3.2 2.08,-5.3 2.08,-2.1 5.32,-2.14 z m -5.6,7.44 q 0,2.54 1.6,4.19 1.6,1.65 4,1.69 2.4,0 3.98,-1.68 1.58,-1.68 1.62,-4.2 0,-2.46 -1.56,-4.15 -1.56,-1.69 -4.06,-1.73 -2.44,0.02 -3.99,1.71 -1.55,1.69 -1.59,4.17 z M 22.76,14.4 q 1.76,0 2.66,1.02 0.9,1.02 0.9,2.72 V 24 h -1.56 v -5.68 q 0,-1.08 -0.5,-1.77 -0.5,-0.69 -1.64,-0.71 -1.44,0 -2.17,0.95 -0.73,0.95 -0.73,2.63 V 24 h -1.56 v -7.28 q 0,-0.1 -0.08,-2.08 h 1.48 q 0.04,1.4 0.04,1.54 h 0.04 q 0.38,-0.8 1.23,-1.29 0.85,-0.49 1.89,-0.49 z M 39.06,9.84 V 11.4 H 34.38 V 24 H 32.7 V 11.4 H 28.02 V 9.84 Z m 3.26,-0.96 v 7.06 h 0.04 q 0.42,-0.7 1.24,-1.12 0.82,-0.42 1.78,-0.42 1.76,0 2.65,1.02 0.89,1.02 0.89,2.72 V 24 h -1.56 v -5.68 q 0,-1.08 -0.5,-1.77 -0.5,-0.69 -1.64,-0.71 -1.44,0 -2.17,0.95 -0.73,0.95 -0.73,2.57 V 24 H 40.76 V 8.88 Z m 13.82,5.52 q 2.08,0 3.25,1.31 1.17,1.31 1.19,3.71 v 0.38 h -7.56 q 0.12,1.3 0.98,2.14 0.86,0.84 2.1,0.86 1.9,0 2.96,-1.42 l 1.18,0.92 q -0.74,0.96 -1.74,1.45 -1,0.49 -2.4,0.49 -2.14,0 -3.44,-1.39 -1.3,-1.39 -1.32,-3.53 0,-2.12 1.33,-3.5 1.33,-1.38 3.47,-1.42 z m 2.76,4.08 q -0.06,-1.22 -0.79,-1.93 -0.73,-0.71 -2.05,-0.71 -1.2,0 -2.02,0.68 -0.82,0.68 -1.02,1.96 z m 6.06,-8.64 v 6 h 7.56 v -6 H 74.2 V 24 H 72.52 V 17.4 H 64.96 V 24 H 63.28 V 9.84 Z m 13.4,0 q 0.46,0 0.8,0.33 0.34,0.33 0.34,0.81 0,0.5 -0.32,0.82 -0.32,0.32 -0.82,0.32 -0.5,0 -0.82,-0.32 -0.32,-0.32 -0.32,-0.82 0,-0.48 0.34,-0.81 0.34,-0.33 0.8,-0.33 z m 0.78,4.8 V 24 h -1.56 v -9.36 z m 4.8,-5.76 V 24 H 82.38 V 8.88 Z m 4.8,0 V 24 H 87.18 V 8.88 Z"
         id="path18"
         inkscape:connector-curvature="0"
         style="fill:url(#linearGradient33)" />
    </g>
    <g
       id="SvgjsG2735"
       featureKey="text3"
       transform="matrix(1.7477756,0,0,1.7477756,98.671687,72.431091)"
       style="fill:url(#linearGradient39)">
      <path
         d="m 5.9,9.48 q 2.58,0 3.96,1.66 l -1.38,1.2 q -0.8,-1.26 -2.58,-1.3 -1.34,0 -2.18,0.64 -0.84,0.64 -0.84,1.74 0,0.96 0.64,1.52 0.64,0.56 2.4,1.1 2.28,0.66 3.23,1.61 0.95,0.95 0.95,2.57 0,1.88 -1.4,3 -1.4,1.12 -3.58,1.14 -1.46,0 -2.6,-0.52 Q 1.38,23.32 0.76,22.4 L 2.2,21.22 q 0.46,0.76 1.28,1.17 0.82,0.41 1.74,0.41 1.26,0 2.17,-0.71 Q 8.3,21.38 8.3,20.34 8.3,19.4 7.77,18.86 7.24,18.32 6.02,17.94 L 4.4,17.4 Q 2.58,16.78 1.83,15.85 1.08,14.92 1.08,13.56 1.08,11.76 2.42,10.63 3.76,9.5 5.9,9.48 Z M 22.38,9.84 V 11.4 H 17.7 V 24 H 16.02 V 11.4 H 11.34 V 9.84 Z m 3.6,0 v 8.52 q 0,2.16 0.92,3.28 0.92,1.12 2.74,1.16 1.82,-0.02 2.73,-1.15 0.91,-1.13 0.93,-3.21 v -8.6 h 1.68 v 8.82 q 0,2.7 -1.4,4.19 -1.4,1.49 -3.94,1.51 -2.5,0 -3.91,-1.51 -1.41,-1.51 -1.43,-4.21 v -8.8 z m 17.48,0 q 3.1,0 5.08,1.95 1.98,1.95 2.02,5.13 0,3.16 -1.99,5.1 Q 46.58,23.96 43.5,24 H 38.18 V 9.84 Z m -0.4,12.6 q 2.66,0 4.17,-1.41 1.51,-1.41 1.53,-4.11 0,-2.6 -1.48,-4.04 -1.48,-1.44 -4.22,-1.48 h -3.2 V 22.44 Z M 54.94,9.84 V 24 H 53.26 V 9.84 Z m 10.1,-0.36 q 3.2,0 5.28,2.1 2.08,2.1 2.12,5.34 -0.02,3.3 -2.14,5.36 -2.12,2.06 -5.26,2.08 -3.2,0 -5.28,-2.11 -2.08,-2.11 -2.12,-5.33 0,-3.2 2.08,-5.3 2.08,-2.1 5.32,-2.14 z m -5.6,7.44 q 0,2.54 1.6,4.19 1.6,1.65 4,1.69 2.4,0 3.98,-1.68 1.58,-1.68 1.62,-4.2 0,-2.46 -1.56,-4.15 -1.56,-1.69 -4.06,-1.73 -2.44,0.02 -3.99,1.71 -1.55,1.69 -1.59,4.17 z M 79.28,9.48 q 2.58,0 3.96,1.66 l -1.38,1.2 q -0.8,-1.26 -2.58,-1.3 -1.34,0 -2.18,0.64 -0.84,0.64 -0.84,1.74 0,0.96 0.64,1.52 0.64,0.56 2.4,1.1 2.28,0.66 3.23,1.61 0.95,0.95 0.95,2.57 0,1.88 -1.4,3 -1.4,1.12 -3.58,1.14 -1.46,0 -2.6,-0.52 -1.14,-0.52 -1.76,-1.44 l 1.44,-1.18 q 0.46,0.76 1.28,1.17 0.82,0.41 1.74,0.41 1.26,0 2.17,-0.71 0.91,-0.71 0.91,-1.75 0,-0.94 -0.53,-1.48 -0.53,-0.54 -1.75,-0.92 L 77.78,17.4 q -1.82,-0.62 -2.57,-1.55 -0.75,-0.93 -0.75,-2.29 0,-1.8 1.34,-2.93 1.34,-1.13 3.48,-1.15 z"
         id="path21"
         inkscape:connector-curvature="0"
         style="fill:url(#linearGradient37)" />
    </g>
  </g>
</svg>
